<svg width="30" height="30" viewBox="0 0 30 30" fill="none" xmlns="http://www.w3.org/2000/svg">
<path d="M20.9375 4.45V2.5C20.9375 1.9875 20.5125 1.5625 20 1.5625C19.4875 1.5625 19.0625 1.9875 19.0625 2.5V4.375H10.9375V2.5C10.9375 1.9875 10.5125 1.5625 10 1.5625C9.48754 1.5625 9.06254 1.9875 9.06254 2.5V4.45C5.68754 4.7625 4.05004 6.775 3.80004 9.7625C3.77504 10.125 4.07504 10.425 4.42504 10.425H25.575C25.9375 10.425 26.2375 10.1125 26.2 9.7625C25.95 6.775 24.3125 4.7625 20.9375 4.45Z" fill="#34AC3D"/>
<path d="M25 12.3008H5C4.3125 12.3008 3.75 12.8633 3.75 13.5508V21.2508C3.75 25.0008 5.625 27.5008 10 27.5008H20C24.375 27.5008 26.25 25.0008 26.25 21.2508V13.5508C26.25 12.8633 25.6875 12.3008 25 12.3008ZM11.5125 22.7633C11.45 22.8133 11.3875 22.8758 11.325 22.9133C11.25 22.9633 11.175 23.0008 11.1 23.0258C11.025 23.0633 10.95 23.0883 10.875 23.1008C10.7875 23.1133 10.7125 23.1258 10.625 23.1258C10.4625 23.1258 10.3 23.0883 10.15 23.0258C9.9875 22.9633 9.8625 22.8758 9.7375 22.7633C9.5125 22.5258 9.375 22.2008 9.375 21.8758C9.375 21.5508 9.5125 21.2258 9.7375 20.9883C9.8625 20.8758 9.9875 20.7883 10.15 20.7258C10.375 20.6258 10.625 20.6008 10.875 20.6508C10.95 20.6633 11.025 20.6883 11.1 20.7258C11.175 20.7508 11.25 20.7883 11.325 20.8383C11.3875 20.8883 11.45 20.9383 11.5125 20.9883C11.7375 21.2258 11.875 21.5508 11.875 21.8758C11.875 22.2008 11.7375 22.5258 11.5125 22.7633ZM11.5125 18.3883C11.275 18.6133 10.95 18.7508 10.625 18.7508C10.3 18.7508 9.975 18.6133 9.7375 18.3883C9.5125 18.1508 9.375 17.8258 9.375 17.5008C9.375 17.1758 9.5125 16.8508 9.7375 16.6133C10.0875 16.2633 10.6375 16.1508 11.1 16.3508C11.2625 16.4133 11.4 16.5008 11.5125 16.6133C11.7375 16.8508 11.875 17.1758 11.875 17.5008C11.875 17.8258 11.7375 18.1508 11.5125 18.3883ZM15.8875 22.7633C15.65 22.9883 15.325 23.1258 15 23.1258C14.675 23.1258 14.35 22.9883 14.1125 22.7633C13.8875 22.5258 13.75 22.2008 13.75 21.8758C13.75 21.5508 13.8875 21.2258 14.1125 20.9883C14.575 20.5258 15.425 20.5258 15.8875 20.9883C16.1125 21.2258 16.25 21.5508 16.25 21.8758C16.25 22.2008 16.1125 22.5258 15.8875 22.7633ZM15.8875 18.3883C15.825 18.4383 15.7625 18.4883 15.7 18.5383C15.625 18.5883 15.55 18.6258 15.475 18.6508C15.4 18.6883 15.325 18.7133 15.25 18.7258C15.1625 18.7383 15.0875 18.7508 15 18.7508C14.675 18.7508 14.35 18.6133 14.1125 18.3883C13.8875 18.1508 13.75 17.8258 13.75 17.5008C13.75 17.1758 13.8875 16.8508 14.1125 16.6133C14.225 16.5008 14.3625 16.4133 14.525 16.3508C14.9875 16.1508 15.5375 16.2633 15.8875 16.6133C16.1125 16.8508 16.25 17.1758 16.25 17.5008C16.25 17.8258 16.1125 18.1508 15.8875 18.3883ZM20.2625 22.7633C20.025 22.9883 19.7 23.1258 19.375 23.1258C19.05 23.1258 18.725 22.9883 18.4875 22.7633C18.2625 22.5258 18.125 22.2008 18.125 21.8758C18.125 21.5508 18.2625 21.2258 18.4875 20.9883C18.95 20.5258 19.8 20.5258 20.2625 20.9883C20.4875 21.2258 20.625 21.5508 20.625 21.8758C20.625 22.2008 20.4875 22.5258 20.2625 22.7633ZM20.2625 18.3883C20.2 18.4383 20.1375 18.4883 20.075 18.5383C20 18.5883 19.925 18.6258 19.85 18.6508C19.775 18.6883 19.7 18.7133 19.625 18.7258C19.5375 18.7383 19.45 18.7508 19.375 18.7508C19.05 18.7508 18.725 18.6133 18.4875 18.3883C18.2625 18.1508 18.125 17.8258 18.125 17.5008C18.125 17.1758 18.2625 16.8508 18.4875 16.6133C18.6125 16.5008 18.7375 16.4133 18.9 16.3508C19.125 16.2508 19.375 16.2258 19.625 16.2758C19.7 16.2883 19.775 16.3133 19.85 16.3508C19.925 16.3758 20 16.4133 20.075 16.4633C20.1375 16.5133 20.2 16.5633 20.2625 16.6133C20.4875 16.8508 20.625 17.1758 20.625 17.5008C20.625 17.8258 20.4875 18.1508 20.2625 18.3883Z" fill="#34AC3D"/>
</svg>
