<svg width="24" height="24" viewBox="0 0 24 24" fill="none" xmlns="http://www.w3.org/2000/svg">
<path d="M12.0201 2.91016C8.71009 2.91016 6.02009 5.60016 6.02009 8.91016V11.8002C6.02009 12.4102 5.76009 13.3402 5.45009 13.8602L4.30009 15.7702C3.59009 16.9502 4.08009 18.2602 5.38009 18.7002C9.69009 20.1402 14.3401 20.1402 18.6501 18.7002C19.8601 18.3002 20.3901 16.8702 19.7301 15.7702L18.5801 13.8602C18.2801 13.3402 18.0201 12.4102 18.0201 11.8002V8.91016C18.0201 5.61016 15.3201 2.91016 12.0201 2.91016Z" stroke="#555555" stroke-width="2" stroke-miterlimit="10" stroke-linecap="round"/>
<path d="M13.87 3.19945C13.56 3.10945 13.24 3.03945 12.91 2.99945C11.95 2.87945 11.03 2.94945 10.17 3.19945C10.46 2.45945 11.18 1.93945 12.02 1.93945C12.86 1.93945 13.58 2.45945 13.87 3.19945Z" stroke="#555555" stroke-width="2" stroke-miterlimit="10" stroke-linecap="round" stroke-linejoin="round"/>
<path d="M15.02 19.0605C15.02 20.7105 13.67 22.0605 12.02 22.0605C11.2 22.0605 10.44 21.7205 9.90002 21.1805C9.36002 20.6405 9.02002 19.8805 9.02002 19.0605" stroke="#555555" stroke-width="2" stroke-miterlimit="10"/>
</svg>
