<svg width="24" height="24" viewBox="0 0 24 24" fill="none" xmlns="http://www.w3.org/2000/svg">
<path d="M12 4.26562C7.73527 4.26562 4.26562 7.73527 4.26562 12C4.26562 16.2647 7.73527 19.7344 12 19.7344C16.2647 19.7344 19.7344 16.2647 19.7344 12C19.7344 7.73527 16.2647 4.26562 12 4.26562ZM18.2888 11.2969H15.502C15.4371 9.59456 15.1375 8.00681 14.6416 6.76702C14.5499 6.53775 14.4521 6.32367 14.349 6.12417C16.4705 6.97533 18.0275 8.94342 18.2888 11.2969ZM5.71116 12.7031H8.49797C8.56289 14.4054 8.86252 15.9932 9.35841 17.233C9.45009 17.4622 9.54792 17.6763 9.65095 17.8758C7.52953 17.0247 5.97253 15.0566 5.71116 12.7031ZM9.35841 6.76702C8.86247 8.00681 8.56284 9.59456 8.49797 11.2969H5.71116C5.97253 8.94342 7.52953 6.97533 9.651 6.12417C9.54792 6.32372 9.45014 6.53775 9.35841 6.76702ZM13.3359 16.7107C12.9429 17.6933 12.4185 18.3281 12 18.3281C11.5815 18.3281 11.0571 17.6933 10.6641 16.7107C10.2312 15.6286 9.96745 14.2255 9.9052 12.7031H14.0947C14.0325 14.2255 13.7687 15.6286 13.3359 16.7107ZM9.90525 11.2969C9.9675 9.77452 10.2313 8.37141 10.6641 7.2893C11.0571 6.30675 11.5815 5.67188 12 5.67188C12.4185 5.67188 12.9429 6.30675 13.3359 7.2893C13.7688 8.37141 14.0325 9.77452 14.0948 11.2969H9.90525ZM14.349 17.8758C14.452 17.6763 14.5499 17.4622 14.6415 17.233C15.1375 15.9932 15.4371 14.4054 15.502 12.7031H18.2888C18.0275 15.0566 16.4705 17.0247 14.349 17.8758ZM24 12C24 5.39255 18.607 0 12 0C10.5271 0 9.01898 0.308203 7.51744 0.916031C7.15748 1.06172 6.98381 1.47164 7.1295 1.83159C7.27523 2.19155 7.68516 2.36522 8.04511 2.21953C9.37819 1.67986 10.7088 1.40625 12 1.40625C17.8414 1.40625 22.5938 6.15858 22.5938 12C22.5938 14.1315 21.9375 16.1861 20.6908 17.9788C19.9413 17.701 19.0646 17.8621 18.4634 18.4634C17.641 19.2858 17.641 20.6241 18.4634 21.4465C19.2858 22.2689 20.624 22.269 21.4465 21.4465C22.1399 20.7532 22.2486 19.6933 21.773 18.8849C23.2316 16.8318 24 14.463 24 12ZM20.4522 20.4521C20.178 20.7263 19.732 20.7263 19.4578 20.4521C19.1836 20.178 19.1836 19.7319 19.4578 19.4578C19.7319 19.1836 20.178 19.1836 20.4522 19.4578C20.7263 19.7319 20.7263 20.178 20.4522 20.4521ZM15.9549 21.7805C14.6218 22.3201 13.2911 22.5938 12 22.5938C6.15858 22.5938 1.40625 17.8414 1.40625 12C1.40625 9.86855 2.0625 7.81387 3.30919 6.02119C4.07363 6.3045 4.94527 6.12797 5.53664 5.53659C6.35906 4.71417 6.35906 3.37594 5.53664 2.55352C4.71422 1.73109 3.37594 1.73109 2.55352 2.55352C1.84537 3.26166 1.75903 4.32403 2.2268 5.11552C0.768281 7.1685 0 9.53709 0 12C0 18.6075 5.39292 24 12 24C13.4729 24 14.981 23.6918 16.4826 23.084C16.8425 22.9383 17.0162 22.5284 16.8705 22.1684C16.7248 21.8085 16.3148 21.6348 15.9549 21.7805ZM3.54783 3.54788C3.82195 3.27375 4.26806 3.2737 4.54219 3.54788C4.81636 3.82205 4.81636 4.26811 4.54219 4.54223C4.26802 4.81641 3.82195 4.81641 3.54778 4.54223C3.27305 4.26741 3.27305 3.82266 3.54783 3.54788Z" fill="url(#paint0_linear_3_69)"/>
<defs>
<linearGradient id="paint0_linear_3_69" x1="12" y1="24" x2="12" y2="0" gradientUnits="userSpaceOnUse">
<stop stop-color="#00B59C"/>
<stop offset="1" stop-color="#9CFFAC"/>
</linearGradient>
</defs>
</svg>
