<svg width="20" height="20" viewBox="0 0 20 20" fill="none" xmlns="http://www.w3.org/2000/svg">
<path d="M5.3125 7.03125C3.69715 7.03125 2.34375 8.34559 2.34375 9.96094C2.34375 11.5763 3.69715 12.8906 5.3125 12.8906C6.92785 12.8906 8.28125 11.5763 8.28125 9.96094C8.28125 8.34559 6.92785 7.03125 5.3125 7.03125Z" fill="white"/>
<path d="M14.7266 0C11.8186 0 9.45312 2.36551 9.45312 5.27344C9.45312 6.18039 9.68488 7.06559 10.1249 7.85067L9.48344 9.77555C9.41535 9.97867 9.46398 10.2018 9.60934 10.3592C9.75848 10.5205 9.98121 10.5803 10.181 10.5291L12.3571 9.98555C13.0884 10.3535 13.9026 10.5469 14.7266 10.5469C17.6345 10.5469 20 8.18137 20 5.27344C20 2.36551 17.6345 0 14.7266 0ZM14.7266 8.20313C14.403 8.20313 14.1406 7.94078 14.1406 7.61719C14.1406 7.29359 14.403 7.03125 14.7266 7.03125C15.0502 7.03125 15.3125 7.29359 15.3125 7.61719C15.3125 7.94078 15.0502 8.20313 14.7266 8.20313ZM15.5443 5.65797C15.4058 5.73121 15.3125 5.91891 15.3125 6.12547C15.3125 6.44934 15.0504 6.71141 14.7266 6.71141C14.4027 6.71141 14.1406 6.44934 14.1406 6.12547C14.1406 5.47543 14.4696 4.89922 14.9984 4.62113C15.1923 4.51926 15.3125 4.32016 15.3125 4.10156C15.3125 3.77828 15.0498 3.51563 14.7266 3.51563C14.4033 3.51563 14.1406 3.77828 14.1406 4.10156C14.1406 4.42543 13.8786 4.6875 13.5547 4.6875C13.2308 4.6875 12.9688 4.42543 12.9688 4.10156C12.9688 3.13227 13.7573 2.34375 14.7266 2.34375C15.6959 2.34375 16.4844 3.13227 16.4844 4.10156C16.4844 4.75672 16.1239 5.35297 15.5443 5.65797Z" fill="white" fill-opacity="0.7"/>
<path d="M8.38711 12.6937C7.63582 13.5274 6.52027 14.0621 5.3125 14.0621C4.10473 14.0621 2.98918 13.5274 2.23789 12.6937C0.888555 13.6498 0 15.2158 0 16.9918V19.4137C0 19.7375 0.26207 19.9996 0.585938 19.9996H10.0391C10.3629 19.9996 10.625 19.7375 10.625 19.4137V16.9918C10.625 15.2158 9.73645 13.6498 8.38711 12.6937Z" fill="white"/>
</svg>
