<svg width="20" height="20" viewBox="0 0 20 20" fill="none" xmlns="http://www.w3.org/2000/svg">
<path d="M6.48438 12.3047C6.80798 12.3047 7.07031 12.0424 7.07031 11.7188C7.07031 11.3951 6.80798 11.1328 6.48438 11.1328C6.16077 11.1328 5.89844 11.3951 5.89844 11.7188C5.89844 12.0424 6.16077 12.3047 6.48438 12.3047Z" fill="white"/>
<path d="M9.60938 10.8203C9.60938 9.85105 10.3979 9.0625 11.3672 9.0625C11.6653 9.0625 11.9229 8.90332 12.0562 8.63668L12.1387 8.47168C12.1884 8.37223 12.2472 8.27969 12.3125 8.1934C12.0668 7.95777 11.7337 7.8125 11.3672 7.8125H1.60156C0.847695 7.8125 0.234375 8.42582 0.234375 9.17969V15.4297C0.234375 16.1836 0.847695 16.7969 1.60156 16.7969H10.1027C9.77754 15.9657 9.60938 15.0775 9.60938 14.1639V10.8203ZM7.07031 13.3758V14.0625C7.07031 14.3861 6.80797 14.6484 6.48438 14.6484C6.16078 14.6484 5.89844 14.3861 5.89844 14.0625V13.3758C5.21645 13.1339 4.72656 12.4826 4.72656 11.7188C4.72656 10.7495 5.51512 9.96094 6.48438 9.96094C7.45363 9.96094 8.24219 10.7495 8.24219 11.7188C8.24219 12.4826 7.7523 13.1339 7.07031 13.3758Z" fill="white"/>
<path d="M19.1797 10.2344C18.4393 10.2344 17.7736 9.82297 17.4425 9.16078L17.36 8.99582C17.2608 8.79727 17.0579 8.67188 16.8359 8.67188H13.7109C13.489 8.67188 13.2861 8.79727 13.1868 8.99578L13.1044 9.1607C12.7733 9.82297 12.1076 10.2344 11.3672 10.2344C11.0436 10.2344 10.7812 10.4967 10.7812 10.8203V14.1639C10.7812 15.4786 11.1961 16.7309 11.9808 17.7857C12.7655 18.8404 13.8459 19.5975 15.1051 19.9753C15.16 19.9918 15.2167 20 15.2734 20C15.3302 20 15.3869 19.9918 15.4418 19.9753C16.701 19.5975 17.7814 18.8404 18.5661 17.7857C19.3508 16.7309 19.7656 15.4786 19.7656 14.1639V10.8203C19.7656 10.4967 19.5033 10.2344 19.1797 10.2344ZM17.345 13.6454L15.1354 15.8551C15.0209 15.9695 14.871 16.0267 14.7211 16.0267C14.5711 16.0267 14.4211 15.9695 14.3068 15.8551L13.2019 14.7502C12.9731 14.5214 12.9731 14.1504 13.2019 13.9216C13.4307 13.6928 13.8017 13.6928 14.0305 13.9216L14.7211 14.6121L16.5165 12.8168C16.7453 12.5879 17.1163 12.5879 17.3451 12.8168C17.5739 13.0456 17.5739 13.4166 17.345 13.6454Z" fill="white" fill-opacity="0.7"/>
<path d="M4.14062 4.6875C4.14062 3.39309 5.18996 2.34375 6.48438 2.34375C7.77879 2.34375 8.82812 3.39309 8.82812 4.6875V6.64062H11.1719V4.6875C11.1719 2.09867 9.0732 0 6.48438 0C3.89555 0 1.79688 2.09867 1.79688 4.6875V6.64062H4.14062V4.6875Z" fill="white"/>
</svg>
