<svg width="20" height="20" viewBox="0 0 20 20" fill="none" xmlns="http://www.w3.org/2000/svg">
<path d="M11.1719 3.90625H4.14062C3.81703 3.90625 3.55469 3.64391 3.55469 3.32031V2.14844C3.55469 1.82484 3.81703 1.5625 4.14062 1.5625C4.79125 1.5625 5.35586 1.12168 5.51363 0.490508L5.52535 0.44375C5.59059 0.18293 5.82492 0 6.09375 0H9.21875C9.48758 0 9.72191 0.18293 9.78715 0.443711L9.79883 0.490352C9.95664 1.12168 10.5212 1.5625 11.1719 1.5625C11.4955 1.5625 11.7578 1.82484 11.7578 2.14844V3.32031C11.7578 3.64391 11.4955 3.90625 11.1719 3.90625Z" fill="white"/>
<path d="M10.7812 6.64046C11.0794 6.64046 11.337 6.48128 11.4703 6.21464L11.5528 6.04964C11.8524 5.45034 12.4548 5.07796 13.125 5.07796H14.4922V4.10139C14.4922 3.19819 13.8073 2.45221 12.9297 2.35468V3.32014C12.9297 4.2894 12.1411 5.07796 11.1719 5.07796H4.14062C3.17137 5.07796 2.38281 4.2894 2.38281 3.32014V2.35468C1.50516 2.45221 0.820312 3.19819 0.820312 4.10139V18.242C0.820312 19.2113 1.60887 19.9998 2.57812 19.9998H12.7344C13.5345 19.9998 14.2109 19.4623 14.4229 18.7297C14.3416 18.7173 14.2613 18.6994 14.1823 18.6757C12.68 18.225 11.391 17.3216 10.4546 16.0632C9.51832 14.8047 9.02344 13.3104 9.02344 11.7419V8.39827C9.02344 7.42901 9.81199 6.64046 10.7812 6.64046ZM6.89297 15.1966L4.68324 17.4063C4.56887 17.5207 4.41887 17.578 4.26895 17.578C4.11898 17.578 3.96906 17.5208 3.85465 17.4063L2.7498 16.3015C2.52098 16.0726 2.52098 15.7017 2.7498 15.4728C2.97859 15.244 3.34961 15.244 3.57844 15.4728L4.26898 16.1633L6.06437 14.368C6.2932 14.1392 6.66418 14.1392 6.89301 14.368C7.12184 14.5968 7.1218 14.9678 6.89297 15.1966ZM6.89297 11.028L4.68324 13.2377C4.56887 13.3521 4.41887 13.4094 4.26895 13.4094C4.11898 13.4094 3.96906 13.3522 3.85465 13.2377L2.7498 12.1329C2.52098 11.904 2.52098 11.5331 2.7498 11.3042C2.97859 11.0754 3.34961 11.0754 3.57844 11.3042L4.26898 11.9948L6.06437 10.1994C6.2932 9.97057 6.66418 9.97057 6.89301 10.1994C7.12184 10.4282 7.1218 10.7992 6.89297 11.028ZM6.89297 6.85944L4.68324 9.06913C4.56887 9.18354 4.41887 9.24077 4.26895 9.24077C4.11898 9.24077 3.96906 9.18358 3.85465 9.06913L2.7498 7.96428C2.52098 7.73546 2.52098 7.36448 2.7498 7.13565C2.97859 6.90682 3.34961 6.90682 3.57844 7.13565L4.26898 7.82616L6.06437 6.03081C6.2932 5.80198 6.66418 5.80202 6.89301 6.03081C7.1218 6.25964 7.1218 6.63065 6.89297 6.85944Z" fill="white"/>
<path d="M18.5938 7.8125C17.8533 7.8125 17.1877 7.40109 16.8566 6.73891L16.7741 6.57395C16.6748 6.37539 16.472 6.25 16.25 6.25H13.125C12.903 6.25 12.7002 6.37539 12.6009 6.57391L12.5184 6.73883C12.1873 7.40109 11.5217 7.8125 10.7812 7.8125C10.4577 7.8125 10.1953 8.07484 10.1953 8.39844V11.7421C10.1953 13.0567 10.6101 14.3091 11.3948 15.3638C12.1796 16.4185 13.26 17.1757 14.5191 17.5534C14.5741 17.5699 14.6308 17.5781 14.6875 17.5781C14.7442 17.5781 14.8009 17.5699 14.8559 17.5534C16.115 17.1757 17.1954 16.4185 17.9802 15.3638C18.7649 14.3091 19.1797 13.0567 19.1797 11.7421V8.39844C19.1797 8.07484 18.9173 7.8125 18.5938 7.8125ZM16.7591 11.2235L14.5494 13.4332C14.435 13.5476 14.285 13.6048 14.1351 13.6048C13.9852 13.6048 13.8352 13.5477 13.7208 13.4332L12.616 12.3284C12.3871 12.0995 12.3871 11.7286 12.616 11.4997C12.8448 11.2709 13.2158 11.2709 13.4446 11.4997L14.1352 12.1902L15.9305 10.3949C16.1593 10.1661 16.5304 10.1661 16.7592 10.3949C16.9879 10.6237 16.9879 10.9947 16.7591 11.2235Z" fill="white" fill-opacity="0.7"/>
</svg>
