<svg width="16" height="13" viewBox="0 0 16 13" fill="none" xmlns="http://www.w3.org/2000/svg">
<path d="M14.5937 0H1.40624C1.18977 0 0.987116 0.0532188 0.803772 0.140937L7.96874 7.3059L9.57464 5.76256C9.57464 5.76256 9.57477 5.7624 9.5748 5.76234C9.57483 5.76228 9.57495 5.76221 9.57495 5.76221L15.1964 0.141062C15.013 0.0532812 14.8103 0 14.5937 0Z" fill="white"/>
<path d="M15.8593 0.803467L10.5692 6.09328L15.8591 11.3832C15.9468 11.1998 16 10.9972 16 10.7807V1.40572C16 1.18937 15.9469 0.986748 15.8593 0.803467Z" fill="white"/>
<path d="M0.140937 0.803467C0.0532187 0.98681 0 1.18947 0 1.40594V10.7809C0 10.9973 0.0531562 11.2 0.140812 11.3832L5.4309 6.09343L0.140937 0.803467Z" fill="white"/>
<path d="M9.90633 6.75665L8.30021 8.30018C8.20865 8.39175 8.08871 8.43753 7.9688 8.43753C7.8489 8.43753 7.72893 8.39175 7.6374 8.30018L6.09377 6.75659L0.803589 12.0464C0.986964 12.1342 1.18974 12.1875 1.40628 12.1875H14.5938C14.8102 12.1875 15.0129 12.1343 15.1962 12.0466L9.90633 6.75665Z" fill="white"/>
</svg>
