<svg width="60" height="60" viewBox="0 0 60 60" fill="none" xmlns="http://www.w3.org/2000/svg">
<circle cx="30" cy="30" r="30" fill="url(#paint0_linear_6_6774)"/>
<path d="M29.9981 10.0039C19.1901 9.79079 10.2468 18.3615 10 29.1687C10.0282 34.6699 12.4641 39.883 16.666 43.4339V49.1667C16.666 49.6269 17.0391 50 17.4993 50C17.6554 50 17.8085 49.9561 17.9409 49.8734L22.5854 46.972C24.9517 47.8771 27.4646 48.3386 29.9981 48.3335C40.806 48.5466 49.7493 39.9759 49.9961 29.1687C49.7493 18.3615 40.806 9.79079 29.9981 10.0039Z" fill="white"/>
<path d="M43.1634 23.6692C42.9155 23.3369 42.4609 23.2374 42.0969 23.4358L33.4311 28.1604L28.04 23.5375C27.7094 23.2541 27.2163 23.2729 26.9084 23.5808L16.9094 33.5799C16.585 33.9062 16.5865 34.4338 16.913 34.7583C17.174 35.0177 17.5742 35.0752 17.8977 34.8997L26.5635 30.1752L31.9596 34.7997C32.2902 35.0831 32.7832 35.0643 33.0911 34.7564L43.0901 24.7574C43.3815 24.4632 43.4128 23.9998 43.1634 23.6692Z" fill="url(#paint1_linear_6_6774)"/>
<defs>
<linearGradient id="paint0_linear_6_6774" x1="-0.00102088" y1="30.0031" x2="59.9981" y2="30.0031" gradientUnits="userSpaceOnUse">
<stop stop-color="#3BB54A"/>
<stop offset="1" stop-color="#7EC341"/>
</linearGradient>
<linearGradient id="paint1_linear_6_6774" x1="16.6667" y1="29.168" x2="43.3306" y2="29.168" gradientUnits="userSpaceOnUse">
<stop stop-color="#3BB54A"/>
<stop offset="1" stop-color="#7EC341"/>
</linearGradient>
</defs>
</svg>
