<svg width="277" height="118" viewBox="0 0 277 118" fill="none" xmlns="http://www.w3.org/2000/svg">
<g filter="url(#filter0_d_6_6770)">
<rect x="50" y="30" width="177" height="48" rx="24" fill="#F02937"/>
</g>
<path d="M75.76 59.4C74.8933 60.0133 73.8867 60.32 72.74 60.32C71.5933 60.32 70.5867 60.0133 69.72 59.4C68.8533 58.7733 68.18 57.92 67.7 56.84C67.2333 55.7467 67 54.52 67 53.16C67 51.8 67.2333 50.58 67.7 49.5C68.18 48.4067 68.8533 47.5533 69.72 46.94C70.5867 46.3133 71.5933 46 72.74 46C73.8867 46 74.8933 46.3133 75.76 46.94C76.6267 47.5533 77.2933 48.4067 77.76 49.5C78.24 50.58 78.48 51.8 78.48 53.16C78.48 54.52 78.24 55.7467 77.76 56.84C77.2933 57.92 76.6267 58.7733 75.76 59.4ZM72.74 57.86C73.38 57.86 73.9333 57.66 74.4 57.26C74.88 56.8467 75.24 56.2867 75.48 55.58C75.7333 54.86 75.86 54.0533 75.86 53.16C75.86 51.7733 75.58 50.6467 75.02 49.78C74.46 48.9 73.7 48.46 72.74 48.46C71.7933 48.46 71.04 48.9 70.48 49.78C69.92 50.66 69.64 51.7867 69.64 53.16C69.64 54.0533 69.76 54.86 70 55.58C70.2533 56.2867 70.6133 56.8467 71.08 57.26C71.56 57.66 72.1133 57.86 72.74 57.86ZM83.8761 59L86.6961 55.04L86.5761 54.92C86.2694 55.0533 85.9228 55.12 85.5361 55.12C84.8428 55.12 84.1761 54.9333 83.5361 54.56C82.9094 54.1733 82.3961 53.64 81.9961 52.96C81.6094 52.28 81.4161 51.52 81.4161 50.68C81.4161 49.8 81.6361 49 82.0761 48.28C82.5294 47.56 83.1228 47 83.8561 46.6C84.6028 46.2 85.3961 46 86.2361 46C87.1961 46 88.0494 46.22 88.7961 46.66C89.5428 47.0867 90.1228 47.6667 90.5361 48.4C90.9494 49.1333 91.1561 49.9267 91.1561 50.78C91.1561 51.6333 90.9894 52.4333 90.6561 53.18C90.3361 53.9267 89.8561 54.7533 89.2161 55.66L85.9161 60.4L83.8761 59ZM86.2961 52.94C86.9094 52.94 87.4428 52.7267 87.8961 52.3C88.3628 51.86 88.5961 51.3133 88.5961 50.66C88.5961 50.0067 88.3628 49.4667 87.8961 49.04C87.4428 48.6133 86.9094 48.4 86.2961 48.4C85.6694 48.4 85.1228 48.6133 84.6561 49.04C84.2028 49.4667 83.9761 50.0067 83.9761 50.66C83.9761 51.3133 84.2028 51.86 84.6561 52.3C85.1228 52.7267 85.6694 52.94 86.2961 52.94ZM98.5275 60.32C97.5675 60.32 96.7142 60.1067 95.9675 59.68C95.2208 59.24 94.6408 58.6533 94.2275 57.92C93.8142 57.1867 93.6075 56.3933 93.6075 55.54C93.6075 54.6867 93.7675 53.8867 94.0875 53.14C94.4208 52.3933 94.9075 51.5667 95.5475 50.66L98.8475 45.92L100.888 47.32L98.0675 51.28L98.1875 51.4C98.4942 51.2667 98.8408 51.2 99.2275 51.2C99.9208 51.2 100.581 51.3933 101.208 51.78C101.848 52.1533 102.361 52.68 102.748 53.36C103.148 54.04 103.348 54.8 103.348 55.64C103.348 56.52 103.121 57.32 102.668 58.04C102.228 58.76 101.634 59.32 100.888 59.72C100.154 60.12 99.3675 60.32 98.5275 60.32ZM98.4675 57.92C99.0942 57.92 99.6342 57.7067 100.088 57.28C100.554 56.8533 100.788 56.3133 100.788 55.66C100.788 55.0067 100.554 54.4667 100.088 54.04C99.6342 53.6 99.0942 53.38 98.4675 53.38C97.8542 53.38 97.3142 53.6 96.8475 54.04C96.3942 54.4667 96.1675 55.0067 96.1675 55.66C96.1675 56.3133 96.3942 56.8533 96.8475 57.28C97.3142 57.7067 97.8542 57.92 98.4675 57.92ZM111.05 60.32C110.33 60.32 109.636 60.1867 108.97 59.92C108.303 59.64 107.716 59.2267 107.21 58.68C106.716 58.12 106.376 57.4333 106.19 56.62L108.55 55.7C108.71 56.38 109.003 56.92 109.43 57.32C109.856 57.7067 110.39 57.9 111.03 57.9C111.67 57.9 112.203 57.6867 112.63 57.26C113.056 56.8333 113.27 56.2933 113.27 55.64C113.27 55 113.056 54.4667 112.63 54.04C112.216 53.6 111.683 53.38 111.03 53.38C110.63 53.38 110.263 53.4667 109.93 53.64C109.61 53.8 109.336 54.02 109.11 54.3L106.57 53.16L107.35 46.32H115.07V48.62H109.53L109.03 51.82L109.19 51.86C109.856 51.3133 110.65 51.04 111.57 51.04C112.33 51.04 113.036 51.2333 113.69 51.62C114.356 52.0067 114.89 52.5533 115.29 53.26C115.69 53.9533 115.89 54.7467 115.89 55.64C115.89 56.5467 115.683 57.3533 115.27 58.06C114.856 58.7667 114.283 59.32 113.55 59.72C112.816 60.12 111.983 60.32 111.05 60.32ZM130.896 57.48H124.596V55.36L130.676 46.32H133.516V55.04H135.216V57.48H133.516V60H130.896V57.48ZM130.896 55.04V50.22H130.736L127.496 55.04H130.896ZM143.035 60.32C142.075 60.32 141.222 60.1067 140.475 59.68C139.729 59.24 139.149 58.6533 138.735 57.92C138.322 57.1867 138.115 56.3933 138.115 55.54C138.115 54.6867 138.275 53.8867 138.595 53.14C138.929 52.3933 139.415 51.5667 140.055 50.66L143.355 45.92L145.395 47.32L142.575 51.28L142.695 51.4C143.002 51.2667 143.349 51.2 143.735 51.2C144.429 51.2 145.089 51.3933 145.715 51.78C146.355 52.1533 146.869 52.68 147.255 53.36C147.655 54.04 147.855 54.8 147.855 55.64C147.855 56.52 147.629 57.32 147.175 58.04C146.735 58.76 146.142 59.32 145.395 59.72C144.662 60.12 143.875 60.32 143.035 60.32ZM142.975 57.92C143.602 57.92 144.142 57.7067 144.595 57.28C145.062 56.8533 145.295 56.3133 145.295 55.66C145.295 55.0067 145.062 54.4667 144.595 54.04C144.142 53.6 143.602 53.38 142.975 53.38C142.362 53.38 141.822 53.6 141.355 54.04C140.902 54.4667 140.675 55.0067 140.675 55.66C140.675 56.3133 140.902 56.8533 141.355 57.28C141.822 57.7067 142.362 57.92 142.975 57.92ZM161.305 60.32C160.345 60.32 159.492 60.1067 158.745 59.68C157.998 59.24 157.418 58.6533 157.005 57.92C156.592 57.1867 156.385 56.3933 156.385 55.54C156.385 54.6867 156.545 53.8867 156.865 53.14C157.198 52.3933 157.685 51.5667 158.325 50.66L161.625 45.92L163.665 47.32L160.845 51.28L160.965 51.4C161.272 51.2667 161.618 51.2 162.005 51.2C162.698 51.2 163.358 51.3933 163.985 51.78C164.625 52.1533 165.138 52.68 165.525 53.36C165.925 54.04 166.125 54.8 166.125 55.64C166.125 56.52 165.898 57.32 165.445 58.04C165.005 58.76 164.412 59.32 163.665 59.72C162.932 60.12 162.145 60.32 161.305 60.32ZM161.245 57.92C161.872 57.92 162.412 57.7067 162.865 57.28C163.332 56.8533 163.565 56.3133 163.565 55.66C163.565 55.0067 163.332 54.4667 162.865 54.04C162.412 53.6 161.872 53.38 161.245 53.38C160.632 53.38 160.092 53.6 159.625 54.04C159.172 54.4667 158.945 55.0067 158.945 55.66C158.945 56.3133 159.172 56.8533 159.625 57.28C160.092 57.7067 160.632 57.92 161.245 57.92ZM169.087 57.62C171.86 54.8733 173.52 53.2 174.067 52.6C174.547 52.08 174.874 51.6467 175.047 51.3C175.234 50.9533 175.327 50.56 175.327 50.12C175.327 49.6533 175.154 49.26 174.807 48.94C174.46 48.62 174 48.46 173.427 48.46C172.867 48.46 172.414 48.62 172.067 48.94C171.72 49.26 171.474 49.66 171.327 50.14L168.967 49.16C169.114 48.64 169.38 48.14 169.767 47.66C170.167 47.1667 170.68 46.7667 171.307 46.46C171.934 46.1533 172.654 46 173.467 46C174.374 46 175.167 46.18 175.847 46.54C176.527 46.8867 177.054 47.3667 177.427 47.98C177.8 48.58 177.987 49.2533 177.987 50C177.987 51.48 177.267 52.9267 175.827 54.34C175.24 54.9133 174.154 55.9933 172.567 57.58L172.627 57.7H178.167V60H169.087V57.62ZM194.288 59.78C193.541 60.14 192.688 60.32 191.728 60.32C190.768 60.32 189.908 60.14 189.148 59.78C188.401 59.42 187.814 58.9267 187.388 58.3C186.974 57.6733 186.768 56.9733 186.768 56.2C186.768 55.4533 186.961 54.7933 187.348 54.22C187.748 53.6333 188.248 53.18 188.848 52.86V52.7C188.381 52.38 187.994 51.9733 187.688 51.48C187.381 50.9867 187.228 50.4467 187.228 49.86C187.228 49.14 187.421 48.4867 187.808 47.9C188.194 47.3 188.728 46.8333 189.408 46.5C190.101 46.1667 190.874 46 191.728 46C192.581 46 193.348 46.1667 194.028 46.5C194.708 46.8333 195.241 47.3 195.628 47.9C196.028 48.4867 196.228 49.14 196.228 49.86C196.228 50.46 196.074 51.0067 195.768 51.5C195.461 51.98 195.068 52.38 194.588 52.7V52.86C195.188 53.18 195.688 53.6333 196.088 54.22C196.488 54.7933 196.688 55.4533 196.688 56.2C196.688 56.9733 196.474 57.6733 196.048 58.3C195.634 58.9267 195.048 59.42 194.288 59.78ZM191.728 51.72C192.288 51.72 192.754 51.5667 193.128 51.26C193.501 50.94 193.688 50.5267 193.688 50.02C193.688 49.5133 193.501 49.1067 193.128 48.8C192.754 48.4933 192.288 48.34 191.728 48.34C191.154 48.34 190.681 48.4933 190.308 48.8C189.934 49.1067 189.748 49.5133 189.748 50.02C189.748 50.5267 189.934 50.94 190.308 51.26C190.681 51.5667 191.154 51.72 191.728 51.72ZM190.048 57.36C190.488 57.72 191.048 57.9 191.728 57.9C192.408 57.9 192.961 57.72 193.388 57.36C193.828 57 194.048 56.5267 194.048 55.94C194.048 55.38 193.828 54.92 193.388 54.56C192.948 54.2 192.394 54.02 191.728 54.02C191.061 54.02 190.501 54.2 190.048 54.56C189.608 54.92 189.388 55.38 189.388 55.94C189.388 56.5267 189.608 57 190.048 57.36ZM207.026 59.78C206.279 60.14 205.426 60.32 204.466 60.32C203.506 60.32 202.646 60.14 201.886 59.78C201.139 59.42 200.553 58.9267 200.126 58.3C199.713 57.6733 199.506 56.9733 199.506 56.2C199.506 55.4533 199.699 54.7933 200.086 54.22C200.486 53.6333 200.986 53.18 201.586 52.86V52.7C201.119 52.38 200.733 51.9733 200.426 51.48C200.119 50.9867 199.966 50.4467 199.966 49.86C199.966 49.14 200.159 48.4867 200.546 47.9C200.933 47.3 201.466 46.8333 202.146 46.5C202.839 46.1667 203.613 46 204.466 46C205.319 46 206.086 46.1667 206.766 46.5C207.446 46.8333 207.979 47.3 208.366 47.9C208.766 48.4867 208.966 49.14 208.966 49.86C208.966 50.46 208.813 51.0067 208.506 51.5C208.199 51.98 207.806 52.38 207.326 52.7V52.86C207.926 53.18 208.426 53.6333 208.826 54.22C209.226 54.7933 209.426 55.4533 209.426 56.2C209.426 56.9733 209.213 57.6733 208.786 58.3C208.373 58.9267 207.786 59.42 207.026 59.78ZM204.466 51.72C205.026 51.72 205.493 51.5667 205.866 51.26C206.239 50.94 206.426 50.5267 206.426 50.02C206.426 49.5133 206.239 49.1067 205.866 48.8C205.493 48.4933 205.026 48.34 204.466 48.34C203.893 48.34 203.419 48.4933 203.046 48.8C202.673 49.1067 202.486 49.5133 202.486 50.02C202.486 50.5267 202.673 50.94 203.046 51.26C203.419 51.5667 203.893 51.72 204.466 51.72ZM202.786 57.36C203.226 57.72 203.786 57.9 204.466 57.9C205.146 57.9 205.699 57.72 206.126 57.36C206.566 57 206.786 56.5267 206.786 55.94C206.786 55.38 206.566 54.92 206.126 54.56C205.686 54.2 205.133 54.02 204.466 54.02C203.799 54.02 203.239 54.2 202.786 54.56C202.346 54.92 202.126 55.38 202.126 55.94C202.126 56.5267 202.346 57 202.786 57.36Z" fill="white"/>
<path d="M42.8729 54.2559C42.4124 53.8572 42.4124 53.1428 42.8729 52.7441L50.8453 45.8397C51.493 45.2788 52.5 45.7389 52.5 46.5956V60.4044C52.5 61.2611 51.493 61.7212 50.8453 61.1603L42.8729 54.2559Z" fill="#F02937"/>
<defs>
<filter id="filter0_d_6_6770" x="0" y="0" width="277" height="148" filterUnits="userSpaceOnUse" color-interpolation-filters="sRGB">
<feFlood flood-opacity="0" result="BackgroundImageFix"/>
<feColorMatrix in="SourceAlpha" type="matrix" values="0 0 0 0 0 0 0 0 0 0 0 0 0 0 0 0 0 0 127 0" result="hardAlpha"/>
<feOffset dy="20"/>
<feGaussianBlur stdDeviation="25"/>
<feColorMatrix type="matrix" values="0 0 0 0 0 0 0 0 0 0 0 0 0 0 0 0 0 0 0.15 0"/>
<feBlend mode="normal" in2="BackgroundImageFix" result="effect1_dropShadow_6_6770"/>
<feBlend mode="normal" in="SourceGraphic" in2="effect1_dropShadow_6_6770" result="shape"/>
</filter>
</defs>
</svg>
