<svg width="16" height="16" viewBox="0 0 16 16" fill="none" xmlns="http://www.w3.org/2000/svg">
<path d="M8.09375 0C4.73375 0 2 2.73375 2 6.09375C2 7.42344 2.42 8.68688 3.21563 9.74688L7.71813 15.811C7.72938 15.8257 7.74656 15.8313 7.75906 15.8444C7.98406 16.0853 8.30875 16.0247 8.46906 15.811C9.76563 14.081 12.1422 10.85 13.0559 9.63125C13.0559 9.63125 13.0563 9.63031 13.0566 9.62969L13.0622 9.62219C13.7984 8.58781 14.1875 7.36781 14.1875 6.09375C14.1875 2.73375 11.4538 0 8.09375 0ZM8.09375 9.38125C6.28469 9.38125 4.80625 7.90281 4.80625 6.09375C4.80625 4.28469 6.28469 2.80625 8.09375 2.80625C9.90281 2.80625 11.3813 4.28469 11.3813 6.09375C11.3813 7.90281 9.90281 9.38125 8.09375 9.38125Z" fill="white"/>
</svg>
