<svg width="48" height="48" viewBox="0 0 48 48" fill="none" xmlns="http://www.w3.org/2000/svg">
<circle cx="24" cy="24" r="24" fill="#F02937"/>
<path d="M22.283 25.7184C20.374 23.8094 19.943 21.9004 19.8458 21.1356C19.8186 20.9241 19.8914 20.712 20.0427 20.5618L21.5875 19.0176C21.8148 18.7905 21.8551 18.4366 21.6848 18.1642L19.2251 14.3448C19.0366 14.0432 18.6497 13.9343 18.3316 14.0934L14.3829 15.9531C14.1257 16.0798 13.9744 16.3531 14.0036 16.6383C14.2105 18.6038 15.0674 23.4356 19.8158 28.1843C24.5641 32.9331 29.3952 33.7896 31.3618 33.9965C31.647 34.0257 31.9203 33.8744 32.047 33.6172L33.9067 29.6685C34.0652 29.3511 33.9571 28.9652 33.6567 28.7764L29.8373 26.3174C29.5651 26.1469 29.2111 26.1869 28.9838 26.414L27.4397 27.9588C27.2894 28.1101 27.0774 28.1829 26.8659 28.1557C26.101 28.0585 24.192 27.6274 22.283 25.7184Z" fill="white"/>
<path d="M29.8634 24.6897C29.4825 24.6897 29.1738 24.3809 29.1738 24C29.1705 21.1447 26.8566 18.8307 24.0013 18.8275C23.6204 18.8275 23.3116 18.5187 23.3116 18.1378C23.3116 17.757 23.6204 17.4482 24.0013 17.4482C27.6181 17.4522 30.5491 20.3832 30.5531 24C30.5531 24.3809 30.2443 24.6897 29.8634 24.6897Z" fill="white"/>
<path d="M33.3118 24.6898C32.9309 24.6898 32.6221 24.3811 32.6221 24.0002C32.6168 19.2412 28.7602 15.3847 24.0013 15.3793C23.6204 15.3793 23.3116 15.0706 23.3116 14.6897C23.3116 14.3088 23.6204 14 24.0013 14C29.5217 14.0061 33.9953 18.4798 34.0014 24.0002C34.0014 24.1831 33.9288 24.3585 33.7994 24.4878C33.6701 24.6172 33.4947 24.6898 33.3118 24.6898Z" fill="white"/>
</svg>
