<svg width="17" height="16" viewBox="0 0 17 16" fill="none" xmlns="http://www.w3.org/2000/svg">
<path d="M6.23003 3.0633L3.5781 0.411378C3.02959 -0.137579 2.13721 -0.136673 1.58873 0.411378L1.25906 0.741008L5.90036 5.38234L6.23003 5.05268C6.49558 4.78712 6.64211 4.43364 6.64211 4.05775C6.64211 3.6823 6.49558 3.32885 6.23003 3.0633Z" fill="white"/>
<path d="M15.592 12.4464L12.94 9.79452C12.4085 9.26294 11.4808 9.26385 10.9511 9.79452L10.6211 10.1243L15.2623 14.7655L15.592 14.4358C16.1405 13.8873 16.1405 12.9949 15.592 12.4464Z" fill="white"/>
<path d="M9.89129 10.7195C9.36906 10.9673 8.73033 10.8882 8.29868 10.4566L5.56709 7.70418C5.13543 7.27252 5.05639 6.63383 5.30409 6.11157L0.632288 1.43976C-0.698924 3.48599 -0.0243478 8.74339 3.57814 12.3455C7.13757 15.9049 12.4518 16.7477 14.5492 15.3774L9.89129 10.7195Z" fill="white"/>
</svg>
