<svg width="26" height="26" viewBox="0 0 26 26" fill="none" xmlns="http://www.w3.org/2000/svg">
<path d="M20.9596 22.3738C21.3501 22.7643 21.9832 22.7643 22.3738 22.3738C22.7643 21.9832 22.7643 21.3501 22.3738 20.9596L20.9596 22.3738ZM18.5 11.375C18.5 15.31 15.31 18.5 11.375 18.5V20.5C16.4146 20.5 20.5 16.4146 20.5 11.375H18.5ZM11.375 18.5C7.43997 18.5 4.25 15.31 4.25 11.375H2.25C2.25 16.4146 6.3354 20.5 11.375 20.5V18.5ZM4.25 11.375C4.25 7.43997 7.43997 4.25 11.375 4.25V2.25C6.3354 2.25 2.25 6.3354 2.25 11.375H4.25ZM11.375 4.25C15.31 4.25 18.5 7.43997 18.5 11.375H20.5C20.5 6.3354 16.4146 2.25 11.375 2.25V4.25ZM22.3738 20.9596L17.8372 16.423L16.423 17.8372L20.9596 22.3738L22.3738 20.9596Z" fill="#34AC3D"/>
</svg>
